<?xml version="1.0" encoding="UTF-8" standalone="no"?>
<!DOCTYPE svg PUBLIC "-//W3C//DTD SVG 1.1//EN" "http://www.w3.org/Graphics/SVG/1.1/DTD/svg11.dtd">
<svg xmlns="http://www.w3.org/2000/svg" version="1.1" viewBox="0.00 0.00 350.00 350.00">
<g stroke-width="2.00" fill="none" stroke-linecap="butt">
<path stroke="#c1c1c1" vector-effect="non-scaling-stroke" d="
  M 214.03 210.57
  L 219.51 210.44
  A 0.70 0.69 89.6 0 0 220.19 209.74
  L 219.90 140.45
  A 0.38 0.37 0.0 0 0 219.52 140.08
  Q 184.06 140.28 148.51 140.01
  C 147.05 140.00 143.50 140.65 142.04 139.23
  Q 137.60 134.90 133.79 130.78
  A 2.11 2.11 0.0 0 0 130.28 131.42
  Q 129.78 132.66 131.19 134.07
  Q 172.38 175.26 213.53 216.47
  Q 215.29 218.23 217.89 220.03
  A 1.36 1.35 20.0 0 0 220.02 219.04
  C 220.28 216.11 215.70 213.22 213.74 211.31
  Q 213.01 210.60 214.03 210.57"
/>
<path stroke="#c1c1c1" vector-effect="non-scaling-stroke" d="
  M 135.35 185.11
  Q 134.10 186.27 134.09 184.56
  Q 133.94 165.26 134.02 147.50
  Q 134.03 145.39 134.49 143.29
  Q 134.62 142.68 134.14 142.29
  L 131.54 140.14
  A 0.65 0.65 0.0 0 0 130.47 140.64
  L 130.20 209.30
  Q 130.20 210.40 131.30 210.40
  L 200.06 210.44
  Q 202.10 210.44 200.66 208.99
  L 180.24 188.54
  A 1.48 1.47 -45.1 0 0 178.14 188.55
  C 176.56 190.14 173.21 194.84 171.19 191.37
  A 0.74 0.73 -40.1 0 1 171.27 190.50
  L 175.73 185.41
  A 0.99 0.99 0.0 0 0 175.69 184.05
  L 157.24 165.50
  A 0.55 0.54 -43.8 0 0 156.48 165.49
  L 135.35 185.11"
/>
<path stroke="#c1c1c1" vector-effect="non-scaling-stroke" d="
  M 194.16 175.69
  L 215.54 197.10
  A 0.42 0.42 0.0 0 0 216.25 196.81
  L 216.52 144.52
  Q 216.53 143.77 215.77 143.77
  L 147.32 143.75
  Q 146.51 143.75 147.08 144.32
  L 184.44 181.72
  Q 184.92 182.20 185.40 181.71
  L 191.32 175.70
  A 2.00 1.99 -45.1 0 1 194.16 175.69"
/>
<path stroke="#c1c1c1" vector-effect="non-scaling-stroke" d="
  M 200.60 161.51
  A 5.85 5.85 0.0 0 0 194.75 155.66
  A 5.85 5.85 0.0 0 0 188.90 161.51
  A 5.85 5.85 0.0 0 0 194.75 167.36
  A 5.85 5.85 0.0 0 0 200.60 161.51"
/>
</g>
<path fill="#f1f1f1" d="
  M 0.00 0.00
  L 350.00 0.00
  L 350.00 350.00
  L 0.00 350.00
  L 0.00 0.00
  Z
  M 214.03 210.57
  L 219.51 210.44
  A 0.70 0.69 89.6 0 0 220.19 209.74
  L 219.90 140.45
  A 0.38 0.37 0.0 0 0 219.52 140.08
  Q 184.06 140.28 148.51 140.01
  C 147.05 140.00 143.50 140.65 142.04 139.23
  Q 137.60 134.90 133.79 130.78
  A 2.11 2.11 0.0 0 0 130.28 131.42
  Q 129.78 132.66 131.19 134.07
  Q 172.38 175.26 213.53 216.47
  Q 215.29 218.23 217.89 220.03
  A 1.36 1.35 20.0 0 0 220.02 219.04
  C 220.28 216.11 215.70 213.22 213.74 211.31
  Q 213.01 210.60 214.03 210.57
  Z
  M 135.35 185.11
  Q 134.10 186.27 134.09 184.56
  Q 133.94 165.26 134.02 147.50
  Q 134.03 145.39 134.49 143.29
  Q 134.62 142.68 134.14 142.29
  L 131.54 140.14
  A 0.65 0.65 0.0 0 0 130.47 140.64
  L 130.20 209.30
  Q 130.20 210.40 131.30 210.40
  L 200.06 210.44
  Q 202.10 210.44 200.66 208.99
  L 180.24 188.54
  A 1.48 1.47 -45.1 0 0 178.14 188.55
  C 176.56 190.14 173.21 194.84 171.19 191.37
  A 0.74 0.73 -40.1 0 1 171.27 190.50
  L 175.73 185.41
  A 0.99 0.99 0.0 0 0 175.69 184.05
  L 157.24 165.50
  A 0.55 0.54 -43.8 0 0 156.48 165.49
  L 135.35 185.11
  Z"
/>
<path fill="#909090" d="
  M 213.74 211.31
  C 215.70 213.22 220.28 216.11 220.02 219.04
  A 1.36 1.35 20.0 0 1 217.89 220.03
  Q 215.29 218.23 213.53 216.47
  Q 172.38 175.26 131.19 134.07
  Q 129.78 132.66 130.28 131.42
  A 2.11 2.11 0.0 0 1 133.79 130.78
  Q 137.60 134.90 142.04 139.23
  C 143.50 140.65 147.05 140.00 148.51 140.01
  Q 184.06 140.28 219.52 140.08
  A 0.38 0.37 0.0 0 1 219.90 140.45
  L 220.19 209.74
  A 0.70 0.69 89.6 0 1 219.51 210.44
  L 214.03 210.57
  Q 213.01 210.60 213.74 211.31
  Z
  M 194.16 175.69
  L 215.54 197.10
  A 0.42 0.42 0.0 0 0 216.25 196.81
  L 216.52 144.52
  Q 216.53 143.77 215.77 143.77
  L 147.32 143.75
  Q 146.51 143.75 147.08 144.32
  L 184.44 181.72
  Q 184.92 182.20 185.40 181.71
  L 191.32 175.70
  A 2.00 1.99 -45.1 0 1 194.16 175.69
  Z"
/>
<path fill="#909090" d="
  M 135.35 185.11
  L 156.48 165.49
  A 0.55 0.54 -43.8 0 1 157.24 165.50
  L 175.69 184.05
  A 0.99 0.99 0.0 0 1 175.73 185.41
  L 171.27 190.50
  A 0.74 0.73 -40.1 0 0 171.19 191.37
  C 173.21 194.84 176.56 190.14 178.14 188.55
  A 1.48 1.47 -45.1 0 1 180.24 188.54
  L 200.66 208.99
  Q 202.10 210.44 200.06 210.44
  L 131.30 210.40
  Q 130.20 210.40 130.20 209.30
  L 130.47 140.64
  A 0.65 0.65 0.0 0 1 131.54 140.14
  L 134.14 142.29
  Q 134.62 142.68 134.49 143.29
  Q 134.03 145.39 134.02 147.50
  Q 133.94 165.26 134.09 184.56
  Q 134.10 186.27 135.35 185.11
  Z"
/>
<path fill="#f1f1f1" d="
  M 194.16 175.69
  A 2.00 1.99 -45.1 0 0 191.32 175.70
  L 185.40 181.71
  Q 184.92 182.20 184.44 181.72
  L 147.08 144.32
  Q 146.51 143.75 147.32 143.75
  L 215.77 143.77
  Q 216.53 143.77 216.52 144.52
  L 216.25 196.81
  A 0.42 0.42 0.0 0 1 215.54 197.10
  L 194.16 175.69
  Z
  M 200.60 161.51
  A 5.85 5.85 0.0 0 0 194.75 155.66
  A 5.85 5.85 0.0 0 0 188.90 161.51
  A 5.85 5.85 0.0 0 0 194.75 167.36
  A 5.85 5.85 0.0 0 0 200.60 161.51
  Z"
/>
<circle fill="#909090" cx="194.75" cy="161.51" r="5.85"/>
</svg>
