<?xml version="1.0" encoding="UTF-8" standalone="no"?>
<!DOCTYPE svg PUBLIC "-//W3C//DTD SVG 1.1//EN" "http://www.w3.org/Graphics/SVG/1.1/DTD/svg11.dtd">
<svg xmlns="http://www.w3.org/2000/svg" version="1.1" viewBox="0.00 0.00 500.00 400.00">
<g stroke-width="2.00" fill="none" stroke-linecap="butt">
<path stroke="#e5e5e5" vector-effect="non-scaling-stroke" d="
  M 310.78 150.05
  C 309.53 148.07 308.83 144.62 308.23 143.11
  Q 299.42 121.22 291.15 99.13
  Q 290.68 97.86 289.67 96.22
  A 0.57 0.57 0.0 0 0 288.98 95.99
  L 124.27 159.57
  Q 122.81 160.14 123.37 161.60
  Q 146.22 221.03 169.07 280.65
  C 170.32 283.90 170.34 285.25 174.00 285.25
  Q 261.30 285.25 349.04 285.24
  A 0.86 0.86 0.0 0 0 349.90 284.38
  L 349.88 153.06
  A 2.32 2.31 0.0 0 0 347.56 150.75
  L 311.95 150.70
  A 1.38 1.36 -15.6 0 1 310.78 150.05"
/>
<path stroke="#e5e5e5" vector-effect="non-scaling-stroke" d="
  M 279.99 115.64
  C 254.02 125.92 227.75 135.69 201.70 145.93
  Q 196.60 147.93 191.54 149.39
  A 0.67 0.67 0.0 0 0 191.73 150.71
  L 293.20 150.65
  A 0.98 0.97 -10.3 0 0 294.12 149.33
  L 281.47 116.29
  A 1.14 1.14 0.0 0 0 279.99 115.64"
/>
<path stroke="#e5e5e5" vector-effect="non-scaling-stroke" d="
  M 142.97 168.82
  A 0.90 0.90 0.0 0 0 142.57 169.92
  L 170.12 241.64
  A 0.60 0.60 0.0 0 0 171.28 241.42
  L 171.23 158.76
  A 0.93 0.92 78.9 0 0 169.96 157.90
  Q 158.83 162.49 147.28 166.75
  Q 145.26 167.50 142.97 168.82"
/>
<path stroke="#e5e5e5" vector-effect="non-scaling-stroke" d="
  M 335.27 166.96
  A 0.69 0.69 0.0 0 0 334.58 166.27
  L 186.46 166.27
  A 0.69 0.69 0.0 0 0 185.77 166.96
  L 185.77 269.96
  A 0.69 0.69 0.0 0 0 186.46 270.65
  L 334.58 270.65
  A 0.69 0.69 0.0 0 0 335.27 269.96
  L 335.27 166.96"
/>
<path stroke="#e5e5e5" vector-effect="non-scaling-stroke" d="
  M 233.10 197.14
  A 14.33 14.33 0.0 0 0 218.77 182.81
  A 14.33 14.33 0.0 0 0 204.44 197.14
  A 14.33 14.33 0.0 0 0 218.77 211.47
  A 14.33 14.33 0.0 0 0 233.10 197.14"
/>
<path stroke="#e5e5e5" vector-effect="non-scaling-stroke" d="
  M 250.40 238.35
  A 1.28 1.27 -55.7 0 1 248.63 238.69
  L 232.36 227.59
  Q 231.85 227.24 231.48 227.74
  C 230.55 228.97 229.92 230.44 228.83 231.45
  Q 224.18 235.74 220.07 240.55
  C 215.14 246.31 209.23 251.52 204.77 258.03
  A 0.62 0.62 0.0 0 0 205.28 259.00
  L 319.74 259.00
  A 1.48 1.48 0.0 0 0 321.15 257.09
  L 306.14 207.59
  A 1.44 1.43 -17.5 0 0 304.31 206.64
  L 295.57 209.57
  A 2.66 2.65 67.6 0 1 292.34 208.22
  L 284.12 191.47
  Q 283.40 190.01 282.49 191.35
  L 250.40 238.35"
/>
</g>
<path fill="#cacaca" d="
  M 0.00 0.00
  L 500.00 0.00
  L 500.00 400.00
  L 0.00 400.00
  L 0.00 0.00
  Z
  M 310.78 150.05
  C 309.53 148.07 308.83 144.62 308.23 143.11
  Q 299.42 121.22 291.15 99.13
  Q 290.68 97.86 289.67 96.22
  A 0.57 0.57 0.0 0 0 288.98 95.99
  L 124.27 159.57
  Q 122.81 160.14 123.37 161.60
  Q 146.22 221.03 169.07 280.65
  C 170.32 283.90 170.34 285.25 174.00 285.25
  Q 261.30 285.25 349.04 285.24
  A 0.86 0.86 0.0 0 0 349.90 284.38
  L 349.88 153.06
  A 2.32 2.31 0.0 0 0 347.56 150.75
  L 311.95 150.70
  A 1.38 1.36 -15.6 0 1 310.78 150.05
  Z"
/>
<path fill="#ffffff" d="
  M 311.95 150.70
  L 347.56 150.75
  A 2.32 2.31 -0.0 0 1 349.88 153.06
  L 349.90 284.38
  A 0.86 0.86 0.0 0 1 349.04 285.24
  Q 261.30 285.25 174.00 285.25
  C 170.34 285.25 170.32 283.90 169.07 280.65
  Q 146.22 221.03 123.37 161.60
  Q 122.81 160.14 124.27 159.57
  L 288.98 95.99
  A 0.57 0.57 0.0 0 1 289.67 96.22
  Q 290.68 97.86 291.15 99.13
  Q 299.42 121.22 308.23 143.11
  C 308.83 144.62 309.53 148.07 310.78 150.05
  A 1.38 1.36 -15.6 0 0 311.95 150.70
  Z
  M 279.99 115.64
  C 254.02 125.92 227.75 135.69 201.70 145.93
  Q 196.60 147.93 191.54 149.39
  A 0.67 0.67 0.0 0 0 191.73 150.71
  L 293.20 150.65
  A 0.98 0.97 -10.3 0 0 294.12 149.33
  L 281.47 116.29
  A 1.14 1.14 0.0 0 0 279.99 115.64
  Z
  M 142.97 168.82
  A 0.90 0.90 0.0 0 0 142.57 169.92
  L 170.12 241.64
  A 0.60 0.60 0.0 0 0 171.28 241.42
  L 171.23 158.76
  A 0.93 0.92 78.9 0 0 169.96 157.90
  Q 158.83 162.49 147.28 166.75
  Q 145.26 167.50 142.97 168.82
  Z
  M 335.27 166.96
  A 0.69 0.69 0.0 0 0 334.58 166.27
  L 186.46 166.27
  A 0.69 0.69 0.0 0 0 185.77 166.96
  L 185.77 269.96
  A 0.69 0.69 0.0 0 0 186.46 270.65
  L 334.58 270.65
  A 0.69 0.69 0.0 0 0 335.27 269.96
  L 335.27 166.96
  Z"
/>
<path fill="#cacaca" d="
  M 201.70 145.93
  C 227.75 135.69 254.02 125.92 279.99 115.64
  A 1.14 1.14 0.0 0 1 281.47 116.29
  L 294.12 149.33
  A 0.98 0.97 -10.3 0 1 293.20 150.65
  L 191.73 150.71
  A 0.67 0.67 0.0 0 1 191.54 149.39
  Q 196.60 147.93 201.70 145.93
  Z"
/>
<path fill="#cacaca" d="
  M 142.97 168.82
  Q 145.26 167.50 147.28 166.75
  Q 158.83 162.49 169.96 157.90
  A 0.93 0.92 78.9 0 1 171.23 158.76
  L 171.28 241.42
  A 0.60 0.60 0.0 0 1 170.12 241.64
  L 142.57 169.92
  A 0.90 0.90 0.0 0 1 142.97 168.82
  Z"
/>
<path fill="#cacaca" d="
  M 335.27 269.96
  A 0.69 0.69 0.0 0 1 334.58 270.65
  L 186.46 270.65
  A 0.69 0.69 0.0 0 1 185.77 269.96
  L 185.77 166.96
  A 0.69 0.69 0.0 0 1 186.46 166.27
  L 334.58 166.27
  A 0.69 0.69 0.0 0 1 335.27 166.96
  L 335.27 269.96
  Z
  M 233.10 197.14
  A 14.33 14.33 0.0 0 0 218.77 182.81
  A 14.33 14.33 0.0 0 0 204.44 197.14
  A 14.33 14.33 0.0 0 0 218.77 211.47
  A 14.33 14.33 0.0 0 0 233.10 197.14
  Z
  M 250.40 238.35
  A 1.28 1.27 -55.7 0 1 248.63 238.69
  L 232.36 227.59
  Q 231.85 227.24 231.48 227.74
  C 230.55 228.97 229.92 230.44 228.83 231.45
  Q 224.18 235.74 220.07 240.55
  C 215.14 246.31 209.23 251.52 204.77 258.03
  A 0.62 0.62 0.0 0 0 205.28 259.00
  L 319.74 259.00
  A 1.48 1.48 0.0 0 0 321.15 257.09
  L 306.14 207.59
  A 1.44 1.43 -17.5 0 0 304.31 206.64
  L 295.57 209.57
  A 2.66 2.65 67.6 0 1 292.34 208.22
  L 284.12 191.47
  Q 283.40 190.01 282.49 191.35
  L 250.40 238.35
  Z"
/>
<circle fill="#ffffff" cx="218.77" cy="197.14" r="14.33"/>
<path fill="#ffffff" d="
  M 250.40 238.35
  L 282.49 191.35
  Q 283.40 190.01 284.12 191.47
  L 292.34 208.22
  A 2.66 2.65 67.6 0 0 295.57 209.57
  L 304.31 206.64
  A 1.44 1.43 -17.5 0 1 306.14 207.59
  L 321.15 257.09
  A 1.48 1.48 0.0 0 1 319.74 259.00
  L 205.28 259.00
  A 0.62 0.62 0.0 0 1 204.77 258.03
  C 209.23 251.52 215.14 246.31 220.07 240.55
  Q 224.18 235.74 228.83 231.45
  C 229.92 230.44 230.55 228.97 231.48 227.74
  Q 231.85 227.24 232.36 227.59
  L 248.63 238.69
  A 1.28 1.27 -55.7 0 0 250.40 238.35
  Z"
/>
</svg>
